<svg width="122" height="28" viewBox="0 0 122 28" fill="none" xmlns="http://www.w3.org/2000/svg">
<rect width="713" height="507" transform="translate(-296 -169)" fill="white"/>
<rect width="120" height="30" fill="white"/>
<path d="M8.504 16L1.96 13.04V12.24L8.504 9.28V10.4L2.856 12.864V12.416L8.504 14.88V16ZM10.2326 18L14.7446 6.992H15.6246L20.0886 18H18.8246L14.9366 8.272H15.4006L11.4806 18H10.2326ZM12.2966 15.136V14.096H18.0566V15.136H12.2966ZM27.2955 18V13.584C27.2955 12.9227 27.0982 12.3893 26.7035 11.984C26.3195 11.568 25.8075 11.36 25.1675 11.36C24.7302 11.36 24.3462 11.456 24.0155 11.648C23.6848 11.84 23.4235 12.1013 23.2315 12.432C23.0395 12.7627 22.9435 13.1413 22.9435 13.568L22.4315 13.28C22.4315 12.7147 22.5648 12.208 22.8315 11.76C23.0982 11.312 23.4555 10.96 23.9035 10.704C24.3622 10.448 24.8848 10.32 25.4715 10.32C26.0475 10.32 26.5595 10.4587 27.0075 10.736C27.4555 11.0133 27.8022 11.3867 28.0475 11.856C28.3035 12.3253 28.4315 12.8373 28.4315 13.392V18H27.2955ZM21.8235 18V10.48H22.9435V18H21.8235ZM31.6009 18V7.312H32.7209V18H31.6009ZM29.6969 11.488V10.48H34.6089V11.488H29.6969ZM41.6236 18V13.584C41.6236 12.9227 41.4263 12.3893 41.0316 11.984C40.6476 11.568 40.1356 11.36 39.4956 11.36C39.0583 11.36 38.6743 11.456 38.3436 11.648C38.013 11.84 37.7516 12.1013 37.5596 12.432C37.3676 12.7627 37.2716 13.1413 37.2716 13.568L36.7596 13.28C36.7596 12.7147 36.893 12.208 37.1596 11.76C37.4263 11.312 37.7836 10.96 38.2316 10.704C38.6903 10.448 39.213 10.32 39.7996 10.32C40.3756 10.32 40.8876 10.4533 41.3356 10.72C41.7836 10.976 42.1303 11.3333 42.3756 11.792C42.6316 12.2507 42.7596 12.784 42.7596 13.392V18H41.6236ZM36.1516 18V6.672H37.2716V18H36.1516ZM48.2628 18.16C47.5374 18.16 46.8761 17.984 46.2788 17.632C45.6921 17.28 45.2228 16.8053 44.8708 16.208C44.5294 15.6107 44.3588 14.944 44.3588 14.208C44.3588 13.4827 44.5294 12.8267 44.8708 12.24C45.2228 11.6533 45.6921 11.1893 46.2788 10.848C46.8761 10.496 47.5374 10.32 48.2628 10.32C48.9988 10.32 49.6601 10.4907 50.2468 10.832C50.8334 11.1733 51.2974 11.6427 51.6388 12.24C51.9908 12.8267 52.1667 13.4827 52.1667 14.208C52.1667 14.9547 51.9908 15.6267 51.6388 16.224C51.2974 16.8107 50.8334 17.28 50.2468 17.632C49.6601 17.984 48.9988 18.16 48.2628 18.16ZM48.2628 17.072C48.7961 17.072 49.2654 16.9493 49.6708 16.704C50.0868 16.4587 50.4121 16.1173 50.6468 15.68C50.8921 15.2427 51.0148 14.752 51.0148 14.208C51.0148 13.664 50.8921 13.184 50.6468 12.768C50.4121 12.3413 50.0868 12.0053 49.6708 11.76C49.2654 11.5147 48.7961 11.392 48.2628 11.392C47.7401 11.392 47.2708 11.5147 46.8548 11.76C46.4388 12.0053 46.1134 12.3413 45.8788 12.768C45.6441 13.184 45.5268 13.664 45.5268 14.208C45.5268 14.7627 45.6441 15.2587 45.8788 15.696C46.1134 16.1227 46.4388 16.4587 46.8548 16.704C47.2708 16.9493 47.7401 17.072 48.2628 17.072ZM59.4205 18V13.584C59.4205 12.9227 59.2232 12.3893 58.8285 11.984C58.4445 11.568 57.9325 11.36 57.2925 11.36C56.8552 11.36 56.4712 11.456 56.1405 11.648C55.8098 11.84 55.5485 12.1013 55.3565 12.432C55.1645 12.7627 55.0685 13.1413 55.0685 13.568L54.5565 13.28C54.5565 12.7147 54.6898 12.208 54.9565 11.76C55.2232 11.312 55.5805 10.96 56.0285 10.704C56.4872 10.448 57.0098 10.32 57.5965 10.32C58.1725 10.32 58.6845 10.4587 59.1325 10.736C59.5805 11.0133 59.9272 11.3867 60.1725 11.856C60.4285 12.3253 60.5565 12.8373 60.5565 13.392V18H59.4205ZM53.9485 18V10.48H55.0685V18H53.9485ZM65.1636 18.032L61.8676 10.48H63.0996L65.7556 16.784H65.2916L68.0916 10.48H69.3396L65.8036 18.032H65.1636ZM63.1156 21.168L65.1796 16.896L65.8036 18.032L64.3476 21.168H63.1156ZM72.6799 13.888V11.936H75.1119C75.4212 11.936 75.7039 11.872 75.9599 11.744C76.2159 11.616 76.4185 11.4293 76.5679 11.184C76.7172 10.9387 76.7919 10.64 76.7919 10.288C76.7919 9.94667 76.7172 9.65333 76.5679 9.408C76.4185 9.16267 76.2159 8.976 75.9599 8.848C75.7039 8.72 75.4212 8.656 75.1119 8.656H72.6799V6.704H75.4799C76.1945 6.704 76.8399 6.848 77.4159 7.136C77.9919 7.424 78.4452 7.84 78.7759 8.384C79.1172 8.91733 79.2879 9.552 79.2879 10.288C79.2879 11.024 79.1172 11.664 78.7759 12.208C78.4452 12.7413 77.9919 13.1573 77.4159 13.456C76.8399 13.744 76.1945 13.888 75.4799 13.888H72.6799ZM70.7599 18V6.704H73.2719V18H70.7599ZM80.5828 18V10.224H83.0308V18H80.5828ZM81.8148 9.152C81.4308 9.152 81.1108 9.024 80.8548 8.768C80.6094 8.50133 80.4868 8.18133 80.4868 7.808C80.4868 7.424 80.6094 7.104 80.8548 6.848C81.1108 6.592 81.4308 6.464 81.8148 6.464C82.1988 6.464 82.5134 6.592 82.7588 6.848C83.0041 7.104 83.1268 7.424 83.1268 7.808C83.1268 8.18133 83.0041 8.50133 82.7588 8.768C82.5134 9.024 82.1988 9.152 81.8148 9.152ZM89.8906 18V13.568C89.8906 13.1627 89.7626 12.8373 89.5066 12.592C89.2613 12.336 88.9466 12.208 88.5626 12.208C88.296 12.208 88.0613 12.2667 87.8586 12.384C87.656 12.4907 87.496 12.6507 87.3786 12.864C87.2613 13.0667 87.2026 13.3013 87.2026 13.568L86.2586 13.104C86.2586 12.496 86.392 11.9627 86.6586 11.504C86.9253 11.0453 87.2933 10.6933 87.7626 10.448C88.2426 10.192 88.7813 10.064 89.3786 10.064C89.9546 10.064 90.4613 10.2027 90.8986 10.48C91.3466 10.7467 91.6986 11.104 91.9546 11.552C92.2106 12 92.3386 12.4907 92.3386 13.024V18H89.8906ZM84.7546 18V10.224H87.2026V18H84.7546ZM98.8869 18L96.1669 13.968L98.8709 10.224H101.607L98.3429 14.432L98.4229 13.424L101.767 18H98.8869ZM93.9109 18V6.384H96.3589V18H93.9109ZM105.148 18.64L109.532 6.4H110.588L106.204 18.64H105.148ZM112.058 10.4V9.28L118.586 12.24V13.04L112.058 16V14.88L117.706 12.416V12.864L112.058 10.4Z" fill="black"/>
</svg>
